<svg width="30" height="30" viewBox="0 0 30 30" fill="none" xmlns="http://www.w3.org/2000/svg">
<circle cx="15" cy="15" r="15" fill="#101010"/>
<path d="M17.2393 12.6741H19.892C19.8536 10.341 17.936 8.73022 15.0212 8.73022C12.1512 8.73022 10.0482 10.3155 10.061 12.6933C10.0546 14.6237 11.4161 15.7295 13.6278 16.2601L15.0532 16.618C16.4786 16.9632 17.2712 17.3723 17.2776 18.2544C17.2712 19.2132 16.3635 19.8652 14.9573 19.8652C13.5191 19.8652 12.4836 19.2004 12.3941 17.89H9.71582C9.78613 20.7217 11.8124 22.1855 14.9893 22.1855C18.1853 22.1855 20.0645 20.6578 20.0709 18.2608C20.0645 16.0811 18.4218 14.9241 16.1462 14.4128L14.9701 14.1315C13.8323 13.8694 12.8799 13.4476 12.8991 12.5079C12.8991 11.6642 13.6469 11.0441 15.002 11.0441C16.3252 11.0441 17.137 11.645 17.2393 12.6741Z" fill="#FBFBFB"/>
</svg>
